<svg xmlns="http://www.w3.org/2000/svg" xmlns:xlink="http://www.w3.org/1999/xlink" width="500" zoomAndPan="magnify" viewBox="0 0 375 374.999991" height="500" preserveAspectRatio="xMidYMid meet" version="1.0"><defs><clipPath id="id1"><path d="M 57.589844 37.5 L 223 37.5 L 223 306 L 57.589844 306 Z M 57.589844 37.5 " clip-rule="nonzero"/></clipPath><clipPath id="id2"><path d="M 147 46 L 317.089844 46 L 317.089844 337.5 L 147 337.5 Z M 147 46 " clip-rule="nonzero"/></clipPath></defs><g clip-path="url(#id1)"><path fill="rgb(94.898987%, 53.729248%, 2.749634%)" d="M 131.707031 232.9375 C 97.109375 176.78125 66.027344 101.824219 131.730469 56.621094 C 157.71875 38.746094 190.992188 32.707031 222.753906 41.984375 C 195.792969 35.851562 168.148438 41.851562 146.496094 57.316406 C 100.023438 90.484375 100.917969 142.046875 124.390625 190.183594 C 104.8125 131.203125 112.527344 89.933594 147.539062 66.410156 C 115.015625 100.78125 116.285156 147.496094 151.324219 206.546875 C 136.71875 237.050781 138.367188 270.175781 156.257812 305.925781 C 98.765625 255.6875 21.574219 164.542969 76.285156 86.800781 C 56.292969 145.15625 72.179688 200.789062 123.960938 253.734375 C 50.875 160.191406 62.003906 82.515625 128.320312 48.640625 C 63.96875 89.132812 84.175781 186.234375 131.691406 232.9375 Z M 131.707031 232.9375 " fill-opacity="1" fill-rule="evenodd"/></g><g clip-path="url(#id2)"><path fill="rgb(94.898987%, 78.42865%, 1.568604%)" d="M 233.933594 237.585938 C 295.625 174.570312 305.75 115.429688 264.304688 60.167969 C 302.832031 96.132812 311.6875 137.667969 290.851562 184.800781 C 276.847656 213.925781 256.734375 240.945312 230.507812 265.835938 C 292.976562 216.402344 318.558594 162.894531 307.257812 105.347656 C 331.265625 156.550781 311.21875 211.246094 247.144531 269.453125 C 217.882812 292.75 199.574219 311.121094 192.195312 324.566406 L 192.128906 324.671875 L 192.058594 324.804688 L 191.820312 325.261719 L 191.699219 325.488281 L 191.671875 325.527344 L 191.578125 325.714844 L 191.246094 326.371094 L 191.230469 326.386719 L 190.910156 327.054688 L 190.84375 327.203125 L 190.804688 327.285156 L 190.523438 327.898438 L 190.507812 327.9375 L 190.46875 328.019531 L 190.414062 328.152344 L 190.242188 328.582031 L 190.148438 328.796875 L 190.148438 328.824219 L 189.90625 329.425781 L 189.828125 329.613281 L 189.8125 329.640625 L 189.546875 330.375 L 189.519531 330.457031 L 189.320312 331.058594 L 189.292969 331.140625 L 189.078125 331.863281 L 189.066406 331.875 L 189.066406 331.890625 L 188.890625 332.613281 L 188.878906 332.640625 C 188.769531 333.09375 188.675781 333.535156 188.609375 333.964844 L 188.597656 334.019531 L 188.582031 334.152344 L 188.503906 334.703125 L 188.4375 335.382812 L 188.4375 335.425781 L 188.410156 335.960938 L 188.394531 336.054688 L 188.394531 336.722656 L 188.421875 337.339844 C 153.730469 301.066406 141.09375 264.726562 150.496094 228.332031 C 155.722656 208.128906 164.65625 198.339844 173.632812 181.265625 C 189.746094 150.617188 187.433594 125.230469 166.691406 105.117188 C 187.003906 107.582031 196.792969 116.03125 196.085938 130.480469 C 202.25 135.058594 205.339844 137.335938 205.339844 137.335938 C 205.632812 130.15625 203.171875 124.640625 197.984375 120.824219 C 213.296875 126.410156 224.851562 140.148438 232.636719 162.039062 C 228.664062 157.941406 224.972656 154.21875 221.546875 150.886719 C 229.585938 162.789062 231.511719 175.066406 227.339844 187.707031 C 226.351562 182.578125 224.703125 178.121094 222.390625 174.371094 C 222.753906 210.683594 172.09375 226.964844 176.761719 269.011719 C 187.605469 230.570312 211.679688 218.839844 231.78125 189.261719 C 258.847656 149.425781 261.789062 110.996094 240.59375 73.960938 C 271.378906 98.691406 271.886719 140.695312 242.144531 199.984375 C 268.089844 164.972656 276.300781 131.617188 266.777344 99.910156 C 248.765625 58.667969 216.574219 42.882812 170.234375 52.578125 C 224.53125 34.21875 277.945312 61.910156 283.855469 119.378906 C 287.332031 153.054688 271.097656 191.925781 233.824219 237.597656 Z M 233.933594 237.585938 " fill-opacity="1" fill-rule="evenodd"/></g></svg>